<svg xmlns="http://www.w3.org/2000/svg" width="16" height="16" viewBox="0 0 1027 1024" version="1.1"><path d="M981.889669 373.857573v169.468405l35.947844 35.947843-74.463391 77.544634-75.490471-74.97693 51.354062-46.732197V401.075226c-218.768305 90.383149-289.12337 118.114343-337.396188 140.196589-48.786359 22.082247-83.707121 21.568706-131.4664 3.594785-48.272818-17.973922-277.311936-101.681043-391.317953-156.116349C-17.460381 351.775326-22.082247 328.665998 60.084253 297.853561c107.32999-40.569709 284.501505-105.789368 378.479438-141.737212 55.462387-22.595787 85.247743-34.920762 136.088265-9.243731 90.89669 37.488465 299.394183 115.54664 403.129388 158.684052 89.356068 39.542628 28.758275 52.381143 4.108325 68.300903z m-389.777332 234.174523c52.894684-22.082247 124.27683-58.03009 202.335005-91.41023v267.554664s-100.653962 107.32999-277.825476 107.32999c-190.523571 0-293.745236-107.32999-293.745236-107.32999V534.082247c60.084253 24.64995 127.358074 45.705115 209.011033 73.436309 50.840522 18.487462 114.519559 24.64995 160.224674 0.51354z" fill="#13227a"></path></svg>