<svg t="1781448869186" class="icon" viewBox="0 0 1024 1024" version="1.1" xmlns="http://www.w3.org/2000/svg" p-id="5686" width="200" height="200"><path d="M123.733333 682.666667h307.2c-34.133333-25.6-59.733333-51.2-85.333333-85.333334H123.733333c-21.333333 0-38.4 17.066667-38.4 38.4v8.533334c0 21.333333 17.066667 38.4 38.4 38.4m691.2 12.8c-8.533333-17.066667-29.866667-29.866667-46.933333-21.333334l-8.533333 4.266667c-21.333333 8.533333-29.866667 29.866667-21.333334 46.933333l68.266667 170.666667c8.533333 17.066667 29.866667 29.866667 46.933333 21.333333l8.533334-4.266666c21.333333-8.533333 29.866667-29.866667 21.333333-46.933334l-68.266667-170.666666z m-157.866666 128H128c-21.333333 0-38.4 17.066667-38.4 38.4v8.533333c0 21.333333 17.066667 38.4 38.4 38.4h529.066667c21.333333 0 38.4-17.066667 38.4-38.4v-8.533333c0-21.333333-17.066667-38.4-38.4-38.4m-290.133334-388.266667c4.266667 29.866667 12.8 55.466667 29.866667 85.333333 17.066667 29.866667 34.133333 55.466667 59.733333 76.8 29.866667 29.866667 68.266667 51.2 106.666667 64 72.533333 21.333333 149.333333 17.066667 221.866667-17.066666 140.8-72.533333 196.266667-243.2 123.733333-384-59.733333-119.466667-196.266667-174.933333-324.266667-145.066667-21.333333 4.266667-42.666667 12.8-64 21.333333-29.866667 12.8-55.466667 34.133333-76.8 55.466667-42.666667 46.933333-72.533333 102.4-81.066666 162.133333 0 25.6 0 55.466667 4.266666 81.066667m281.6-260.266667c119.466667 0 217.6 98.133333 217.6 217.6s-98.133333 217.6-217.6 217.6-217.6-98.133333-217.6-217.6 98.133333-217.6 217.6-217.6M128 366.933333c-21.333333 0-42.666667 17.066667-42.666667 42.666667v8.533333c0 21.333333 21.333333 42.666667 42.666667 42.666667h162.133333c-4.266667-21.333333-8.533333-42.666667-8.533333-68.266667v-21.333333H128zM123.733333 213.333333h204.8c17.066667-29.866667 38.4-59.733333 64-85.333333H123.733333c-21.333333 0-38.4 17.066667 0 38.4v8.533333c0 21.333333 17.066667 38.4 38.4 38.4z m0 0" fill="#1296db" p-id="5687"></path></svg>
