<svg xmlns="http://www.w3.org/2000/svg" width="16" height="16" viewBox="0 0 1024 1024" version="1.1"><path d="M868.571429 1024H155.428571C69.832653 1024 0 958.367347 0 874.285714V256c0-12.8 10.242286-23.795429 23.795429-23.795429L192 187.428571l-0.844898 0.169469c32.367347 12.8 54.857143 44.065306 54.857143 79.231837v544c0 44.916898 36.571429 81.836735 81.836734 81.836735h544c45.265306 0 81.836735-36.571429 81.836735-81.836735v-544c0-35.166531 22.489796-66.431837 54.857143-79.231837l-0.844898-0.169469L1024 232.204571c13.553143 0 23.795429 10.995429 23.795429 23.795429v618.285714C1024 958.367347 954.167347 1024 868.571429 1024z" fill="#13227a"></path></svg>