<svg xmlns="http://www.w3.org/2000/svg" width="16" height="16" viewBox="0 0 1093 1024" version="1.1"><path d="M216.212575 510.800175c-127.181475 25.420026-152.642173 152.601501-152.642173 152.601501L0 930.494976l432.384478 63.570401-76.300751-483.265202z m813.888231 152.601501s-25.420026-127.181475-152.601501-152.601501h-139.911824l-76.300751 483.265202 432.384478-63.570401zM519.46332 120.3079l-1.830242 9.35457A3.741828 3.741828 0 0 0 520.602137 134.217738h51.938197a3.7825 3.7825 0 0 0 3.741828-3.782499 3.457124 3.457124 0 0 0 0-0.935457l-2.440322-9.232554a45.959407 45.959407 0 1 0-54.256504 0z m52.58895-4.067204h-50.962069a4.067204 4.067204 0 0 1 0-8.419113h5.978791a6.344839 6.344839 0 0 1 6.344838-6.344838h26.355483a6.304167 6.304167 0 0 1 6.304167 6.344838h5.97879a4.067204 4.067204 0 1 1 0 8.419113z m-3.172419-52.38559l1.870914-4.555269 1.179489 4.799301 4.921317 0.366048-4.067204 2.562339 1.179489 4.799301-3.741828-3.172419-4.067204 2.60301 1.870914-4.59594-3.7825-3.17242z m-6.670215 19.441236l-4.758629-1.138817-2.603011 4.067204-0.40672-4.921317-4.799301-1.138817 4.555269-1.911586-0.406721-4.921317 3.416452 3.945188 4.555268-1.911586-2.562338 4.311236z m-18.749812-31.561505l3.17242-9.76129 3.172419 9.76129h10.330699l-8.337769 6.060135 3.253763 9.842634-8.337768-6.060134-8.134409 6.060134 3.17242-9.842634-8.337769-6.060135z m-11.388171 23.711801l4.555268 1.830242 3.17242-3.741828-0.366049 4.880645 4.555269 1.870914-4.799301 1.220161-0.366048 4.921317-2.562339-4.067204-4.799301 1.220161 3.172419-3.7825z m-10.696747-11.510188l1.138817-4.799301 1.952258 4.555269 4.799301-0.447393-3.741828 3.253764 1.911586 4.555268-4.067204-2.562338-3.701156 3.213091 1.138817-4.799301-4.067204-2.562339z m207.427414 79.188466c-188.921635 69.142471-336.601819 14.113199-361.208405 4.067204a2.521667 2.521667 0 0 0-3.457123 2.440322l1.260833 35.669381a14.153871 14.153871 0 0 0 9.801962 12.933709c142.880883 44.332526 304.186202 10.127338 346.444453-0.284704a13.991182 13.991182 0 0 0 10.574731-13.584462v-38.923144a2.562339 2.562339 0 0 0-3.416451-2.358978zM366.048377 138.284943c67.271557 38.923144 180.543194 35.384676 180.543195 35.384676a471.06359 471.06359 0 0 0 147.964888-23.183064 155.16384 155.16384 0 0 0 71.786154-48.074353c15.374032-18.749811 20.90543-34.245859 20.90543-38.679112v-4.636613a13.503118 13.503118 0 0 0-14.397903-13.869166c-34.571236 2.277634-141.579378 4.514597-226.46193-45.227311-84.719863 49.741907-191.768678 47.504945-226.339913 45.227311a13.503118 13.503118 0 0 0-14.397903 13.869166v4.636613C305.772411 70.810025 319.926282 106.194702 366.048377 138.284943z m128.930373-68.613735a52.873655 52.873655 0 0 1 38.597768-37.540295 53.483735 53.483735 0 0 1 50.107956 90.291933l2.39965 10.574731a9.923978 9.923978 0 0 1-8.134408 9.923978h-62.675617a9.842634 9.842634 0 0 1-8.134408-9.923978l2.236962-10.737419a53.605751 53.605751 0 0 1-14.397903-52.58895z m206.695318 180.177146a172.083409 172.083409 0 0 0 26.721531-43.112365 2.603011 2.603011 0 0 0-2.969059-3.579139 723.962347 723.962347 0 0 1-177.330103 23.833816A733.316916 733.316916 0 0 1 370.766334 203.36021a2.603011 2.603011 0 0 0-2.969059 3.579139 174.88978 174.88978 0 0 0 23.549113 39.370537v111.888787a155.16384 155.16384 0 0 0 310.32768 0zM671.088692 358.198673a124.619137 124.619137 0 1 1-249.238273 0V276.203837c54.012472 41.892203 120.063868 46.081424 126.08333 46.366128h0.447393c5.816102-0.284704 69.386504-4.067204 122.788894-43.885134z m-57.835644 290.642412a11.95758 11.95758 0 0 0 6.222823-14.560591l-16.065457-51.856853a11.022123 11.022123 0 0 0-10.330698-8.134409h-93.179648a11.022123 11.022123 0 0 0-10.330699 8.134409l-16.268817 51.856853a12.201613 12.201613 0 0 0 6.263495 14.560591l40.672041 17.73301-50.189299 295.116337 76.30075 62.309568 76.300751-62.309568-50.1893-295.116337z" fill="#13227a"></path></svg>